<svg width="20" height="20" viewBox="0 0 20 20" fill="none" xmlns="http://www.w3.org/2000/svg">
<path d="M17 7C17 3.14062 13.8599 0 10 0C6.14014 0 3 3.14062 3 7C1.3457 7 0 8.3457 0 10V12C0 13.6543 1.3457 15 3 15H4C4.55225 15 5 14.5527 5 14V8V7C5 4.24316 7.24316 2 10 2C12.7568 2 15 4.24316 15 7V8V14C15 16.2061 13.2056 18 11 18H10C9.44775 18 9 18.4473 9 19C9 19.5527 9.44775 20 10 20H11C13.9672 20 16.4313 17.8331 16.9097 15H17C18.6543 15 20 13.6543 20 12V10C20 8.3457 18.6543 7 17 7ZM3 13C2.44873 13 2 12.5518 2 12V10C2 9.44824 2.44873 9 3 9V13ZM18 12C18 12.5518 17.5513 13 17 13V9C17.5513 9 18 9.44824 18 10V12Z" fill="white"/>
</svg>
